<?xml version="1.0" encoding="utf-8"?>
<!-- Generator: Adobe Illustrator 23.0.1, SVG Export Plug-In . SVG Version: 6.00 Build 0)  -->
<svg version="1.1" baseProfile="basic" id="Layer_1"
	 xmlns="http://www.w3.org/2000/svg" xmlns:xlink="http://www.w3.org/1999/xlink" x="0px" y="0px" viewBox="0 0 28 28"
	 xml:space="preserve">
<style type="text/css">
	.st0{fill:#FFFFFF;}
</style>
<path class="st0" d="M23.4,6c-0.9,0-1.6,0.8-1.6,1.7c0,0.4,0.1,0.7,0.3,1l-1,2.1c-0.1,0-0.2,0-0.3,0l-0.5-0.8
	c0.2-0.3,0.4-0.7,0.4-1.1c0-1.1-0.9-2-1.9-2c-1.1,0-1.9,0.9-1.9,2c0,0.5,0.2,1.1,0.6,1.4l-3.2,8.7c-0.1,0-0.2,0-0.3,0.1l-5.1-7
	c0.1-0.2,0.2-0.5,0.2-0.8c0-1.1-0.9-2-1.9-2S5,10.2,5,11.3c0,0.5,0.2,1,0.5,1.3l-0.9,1.8c0,0,0,0,0,0c-0.9,0-1.6,0.8-1.6,1.7
	c0,0.9,0.7,1.7,1.6,1.7c0.9,0,1.6-0.8,1.6-1.7c0-0.4-0.1-0.7-0.3-1l0.9-1.8c0.2,0,0.4,0,0.6,0l5.2,7.1c-0.1,0.2-0.1,0.4-0.1,0.6
	c0,1.1,0.9,2,1.9,2c1.1,0,1.9-0.9,1.9-2c0-0.5-0.2-1-0.6-1.4l3.2-8.8c0,0,0,0,0.1,0l0.5,0.8c-0.2,0.3-0.2,0.6-0.2,0.9
	c0,0.9,0.7,1.7,1.6,1.7c0.9,0,1.6-0.8,1.6-1.7c0-0.4-0.1-0.7-0.3-1l1-2.1c0,0,0,0,0,0c0.9,0,1.6-0.8,1.6-1.7C25,6.8,24.3,6,23.4,6z
	 M4.6,17.1c-0.5,0-0.9-0.4-0.9-1c0-0.5,0.4-0.9,0.9-1c0.1,0,0.2,0,0.3,0c0,0,0.1,0,0.2,0.1c0,0,0.1,0.1,0.1,0.1
	c0.1,0.1,0.2,0.1,0.2,0.2c0.1,0.2,0.2,0.4,0.2,0.6C5.6,16.7,5.2,17.1,4.6,17.1z M21,13.5c-0.5,0-0.9-0.4-0.9-1c0-0.2,0-0.3,0.1-0.4
	c0.1-0.1,0.1-0.2,0.2-0.3c0,0,0.1-0.1,0.1-0.1c0,0,0.1-0.1,0.1-0.1c0.1,0,0.2-0.1,0.3-0.1c0,0,0.2,0,0.4,0c0,0,0.2,0.1,0.3,0.1
	c0,0,0.2,0.1,0.2,0.2c0.1,0.2,0.2,0.4,0.2,0.6C22,13.1,21.5,13.5,21,13.5z M23.4,8.7L23.4,8.7c-0.1,0-0.2,0-0.3,0c0,0-0.1,0-0.1-0.1
	c0,0-0.1-0.1-0.1-0.1c-0.1-0.1-0.2-0.1-0.2-0.2c-0.1-0.2-0.2-0.4-0.2-0.6c0-0.5,0.4-1,0.9-1c0.5,0,0.9,0.4,0.9,1
	C24.3,8.2,23.9,8.7,23.4,8.7z"/>
</svg>
