<?xml version="1.0" encoding="utf-8"?>
<svg xmlns="http://www.w3.org/2000/svg" xmlns:xlink="http://www.w3.org/1999/xlink" viewBox="0 0 53 50" version="1.1" id="Layer_1" xml:space="preserve">
<style type="text/css">
	.st2{fill:#009688;}
</style>
<g>
	<path class="st2" d="M27.7,49.3c-13.5,0-24.5-11-24.5-24.5c0-13.5,11-24.5,24.5-24.5s24.5,11,24.5,24.5   C52.2,38.3,41.2,49.3,27.7,49.3z M27.7,1.8c-12.7,0-23,10.3-23,23c0,12.7,10.3,23,23,23s23-10.3,23-23C50.7,12.1,40.4,1.8,27.7,1.8   z"/>
</g>
<path class="st2" d="M41.7,13.9c-1.3,0-2.4,1.1-2.4,2.4c0,0.6,0.2,1.2,0.6,1.6L38,21.7c-0.1,0-0.1,0-0.2,0c-0.2,0-0.4,0-0.5,0.1  l-1.1-1.7c0.4-0.5,0.7-1.1,0.7-1.8c0-1.6-1.3-2.9-2.9-2.9c-1.6,0-2.9,1.3-2.9,2.9c0,0.9,0.4,1.7,1,2.2l-4.2,14.4  c-0.3,0-0.5,0.1-0.8,0.2L17,23.5c0.2-0.4,0.3-0.8,0.3-1.3c0-1.6-1.3-2.9-2.9-2.9s-2.9,1.3-2.9,2.9c0,0.8,0.3,1.6,0.9,2.1l-1.6,3.3  c-0.1,0-0.1,0-0.2,0C9.1,27.6,8,28.6,8,30s1.1,2.4,2.4,2.4s2.4-1.1,2.4-2.4c0-0.6-0.2-1.2-0.6-1.6l1.6-3.3c0.1,0,0.3,0,0.5,0  c0.3,0,0.6-0.1,0.8-0.1l10.1,11.7c-0.1,0.3-0.2,0.7-0.2,1.1c0,1.6,1.3,2.9,2.9,2.9s2.9-1.3,2.9-2.9c0-0.9-0.4-1.6-1-2.2l4.3-14.4  c0.1,0,0.3-0.1,0.4-0.1l1.1,1.7c-0.3,0.4-0.4,0.9-0.4,1.4c0,1.3,1.1,2.4,2.4,2.4s2.4-1.1,2.4-2.4c0-0.6-0.2-1.2-0.6-1.6l1.9-3.8  c0.1,0,0.1,0,0.2,0c1.3,0,2.4-1.1,2.4-2.4C44.1,15,43,13.9,41.7,13.9z M11.8,28l-0.3,0.5c0.2,0.1,0.3,0.3,0.4,0.4  c0.2,0.3,0.3,0.7,0.3,1.1c0,1-0.8,1.9-1.9,1.9S8.6,31,8.6,30c0-1,0.8-1.8,1.8-1.8c0,0,0,0,0.1,0c0.2,0,0.4,0,0.5,0.1l0.3-0.5l1.5-3  c0.2,0.1,0.3,0.2,0.5,0.3L11.8,28z M41.7,18.2C41.7,18.2,41.7,18.2,41.7,18.2c-0.3,0-0.4,0-0.6-0.1l-0.3,0.5l-1.7,3.5l-0.3,0.5  c0.2,0.1,0.3,0.3,0.4,0.4c0.2,0.3,0.3,0.7,0.3,1.1c0,1-0.8,1.9-1.9,1.9c-1,0-1.9-0.8-1.9-1.9c0-0.3,0.1-0.6,0.2-0.9  c0.1-0.2,0.2-0.4,0.4-0.5l-0.3-0.5l-1-1.4c0.2-0.1,0.3-0.2,0.5-0.3l1,1.4l0.3,0.5c0.2-0.1,0.4-0.1,0.6-0.2l0.1,0c0,0,0,0,0.1,0  c0.2,0,0.4,0,0.6,0.1l0.3-0.5l1.7-3.5l0.3-0.5c-0.2-0.1-0.3-0.3-0.4-0.4c-0.2-0.3-0.3-0.7-0.3-1.1c0-1,0.8-1.9,1.9-1.9  c1,0,1.9,0.8,1.9,1.9C43.5,17.3,42.7,18.2,41.7,18.2z"/>
</svg>