<?xml version="1.0" encoding="utf-8"?>
<!-- Generator: Adobe Illustrator 23.0.1, SVG Export Plug-In . SVG Version: 6.00 Build 0)  -->
<svg version="1.1" baseProfile="basic" id="visa_logo"
	 xmlns="http://www.w3.org/2000/svg" xmlns:xlink="http://www.w3.org/1999/xlink" x="0px" y="0px" viewBox="0 0 30 30"
	 xml:space="preserve">
<style type="text/css">
	.st0{fill:#FFFFFF;}
</style>
<path class="st0" d="M6.6,17l-0.1,0.3c-0.1,0-0.2,0-0.3,0c0,0,0,0,0,0c-0.5,0-0.9,0.4-0.9,1c0,0.5,0.4,1,1,1s1-0.4,1-1
	c0-0.2-0.1-0.4-0.2-0.6c-0.1-0.1-0.1-0.2-0.2-0.2l0.1-0.3l0.8-1.6c-0.1,0-0.2-0.1-0.3-0.1L6.6,17z"/>
<path class="st0" d="M15.2,3.5c-6.6,0-12,5.4-12,12s5.4,12,12,12s12-5.4,12-12S21.9,3.5,15.2,3.5z M22.6,12.3c0,0-0.1,0-0.1,0l-1,2
	c0.2,0.2,0.3,0.5,0.3,0.9c0,0.7-0.6,1.3-1.3,1.3s-1.3-0.6-1.3-1.3c0-0.3,0.1-0.5,0.2-0.7l-0.6-0.9c-0.1,0-0.1,0-0.2,0.1l-2.2,7.6
	c0.3,0.3,0.5,0.7,0.5,1.1c0,0.9-0.7,1.5-1.5,1.5c-0.9,0-1.5-0.7-1.5-1.5c0-0.2,0-0.4,0.1-0.6l-5.3-6.2c-0.1,0-0.3,0.1-0.4,0.1
	c-0.1,0-0.2,0-0.2,0l-0.9,1.7c0.2,0.2,0.3,0.5,0.3,0.9c0,0.7-0.6,1.3-1.3,1.3s-1.3-0.6-1.3-1.3S5.4,17,6.1,17c0,0,0.1,0,0.1,0
	l0.9-1.7c-0.3-0.3-0.5-0.7-0.5-1.1c0-0.9,0.7-1.5,1.5-1.5s1.5,0.7,1.5,1.5c0,0.2-0.1,0.5-0.2,0.7l5.3,6.1c0.1,0,0.3-0.1,0.4-0.1
	l2.2-7.6c-0.3-0.3-0.6-0.7-0.6-1.2c0-0.9,0.7-1.5,1.5-1.5s1.5,0.7,1.5,1.5c0,0.4-0.1,0.7-0.3,1l0.6,0.9c0.1,0,0.2,0,0.3,0
	c0,0,0.1,0,0.1,0l1-2c-0.2-0.2-0.3-0.5-0.3-0.9c0-0.7,0.6-1.3,1.3-1.3s1.3,0.6,1.3,1.3C23.9,11.8,23.3,12.3,22.6,12.3z"/>
<path class="st0" d="M22.6,10.1c-0.5,0-1,0.4-1,1c0,0.2,0.1,0.4,0.2,0.6c0.1,0.1,0.1,0.2,0.2,0.2l-0.1,0.3L21,13.9l-0.1,0.3
	c-0.1,0-0.2,0-0.3,0c0,0,0,0,0,0l-0.1,0c-0.1,0-0.2,0-0.3,0.1L20,14l-0.5-0.8c-0.1,0.1-0.2,0.1-0.3,0.2l0.5,0.8l0.2,0.3
	c-0.1,0.1-0.1,0.2-0.2,0.3c-0.1,0.1-0.1,0.3-0.1,0.5c0,0.5,0.4,1,1,1s1-0.4,1-1c0-0.2-0.1-0.4-0.2-0.6c-0.1-0.1-0.1-0.2-0.2-0.2
	l0.1-0.3l0.9-1.8l0.1-0.3c0.1,0,0.2,0,0.3,0c0,0,0,0,0,0c0.5,0,0.9-0.4,0.9-1C23.6,10.5,23.1,10.1,22.6,10.1z"/>
</svg>
