<svg xmlns="http://www.w3.org/2000/svg" viewBox="0 0 174 32" class="icon icon-logo-app"><path fill="#009588" d="M5.59 19.855c-0.675 0-1.253-0.578-1.253-1.253s0.578-1.253 1.253-1.253c0 0 0 0 0 0l2.313-3.663 1.157 0.675-2.313 3.663c0.096 0.193 0.193 0.386 0.193 0.578-0.096 0.675-0.675 1.253-1.349 1.253zM5.59 17.831c-0.482 0-0.771 0.386-0.771 0.771s0.386 0.771 0.771 0.771c0.386 0 0.771-0.386 0.771-0.771 0-0.096-0.096-0.289-0.193-0.386l-0.096-0.096 2.217-3.663-0.289-0.193-2.217 3.566h-0.193c0.096 0 0 0 0 0s0 0 0 0z"></path><path fill="#009588" d="M22.361 15.518c-0.096 0-0.193 0-0.289 0-0.675-0.193-1.060-0.867-0.964-1.542 0 0 0 0 0 0l-2.41-2.602 0.964-0.867 2.41 2.602c0.096 0 0.289 0 0.386 0l1.253-2.024c-0.096-0.193-0.193-0.386-0.193-0.578 0-0.675 0.578-1.253 1.253-1.253s1.253 0.578 1.253 1.253c0 0.675-0.578 1.253-1.253 1.253 0 0 0 0 0 0l-1.349 2.12c0.096 0.289 0.096 0.482 0.096 0.771-0.096 0.289-0.289 0.578-0.578 0.771-0.096 0-0.386 0.096-0.578 0.096zM19.373 11.277l2.313 2.41-0.096 0.193c0 0 0 0.096 0 0.096-0.096 0.386 0.096 0.867 0.578 0.964 0.386 0.096 0.867-0.193 0.964-0.578 0.096-0.193 0-0.386-0.096-0.578l-0.096-0.096 1.639-2.602h0.193c0 0 0.096 0 0.096 0s0 0 0 0c0.482 0 0.771-0.386 0.771-0.771s-0.386-0.771-0.771-0.771c-0.386 0-0.771 0.386-0.771 0.771 0 0.096 0.096 0.289 0.193 0.386l0.096 0.096-1.639 2.699h-0.193c-0.096 0-0.289 0-0.482 0h-0.096l-2.313-2.41-0.289 0.193z"></path><path fill="#009588" d="M19.663 10.217c-0.771 0-1.446 0.675-1.446 1.446 0 0.289 0.096 0.578 0.289 0.867l-2.699 8.771c0 0-0.096 0-0.096 0-0.096 0-0.096 0-0.193 0l-6.072-6.458c0.193-0.193 0.193-0.482 0.193-0.771 0-0.771-0.675-1.446-1.446-1.446s-1.446 0.675-1.446 1.446c0 0.771 0.675 1.446 1.446 1.446 0.096 0 0.096 0 0.193 0l6.072 6.458c-0.193 0.193-0.193 0.482-0.193 0.771 0 0.771 0.675 1.446 1.446 1.446s1.446-0.675 1.446-1.446c0-0.289-0.096-0.578-0.289-0.867l2.699-8.771c0 0 0.096 0 0.096 0 0.771 0 1.446-0.675 1.446-1.446s-0.578-1.446-1.446-1.446z"></path><path fill="none" stroke="#009588" stroke-width="1.4458" stroke-miterlimit="10" stroke-linecap="butt" stroke-linejoin="miter" d="M29.976 15.807c0 7.772-6.3 14.072-14.072 14.072s-14.072-6.3-14.072-14.072c0-7.772 6.3-14.072 14.072-14.072s14.072 6.3 14.072 14.072z"></path><path fill="#1e2e35" d="M31.807 10.795h1.060l3.663 8.964 3.663-8.964h1.060l-4.241 10.12h-1.060l-4.145-10.12z"></path><path fill="#1e2e35" d="M44.337 7.518c0 1.060-1.639 1.060-1.639 0s1.639-1.060 1.639 0zM42.988 10.795v10.12h0.964v-10.12h-0.964z"></path><path fill="#1e2e35" d="M53.783 12.627c-1.060-0.867-2.024-1.060-3.181-1.060-1.542 0-3.084 0.578-3.084 1.831 0 1.349 1.831 1.639 3.084 1.831 1.831 0.289 4.241 0.578 4.145 2.988-0.096 2.217-2.41 2.795-4.145 2.795s-3.566-0.675-4.434-2.024l0.771-0.675c0.867 1.253 2.313 1.735 3.663 1.735 1.253 0 3.084-0.289 3.181-1.928 0-1.446-1.639-1.735-3.277-2.024-1.928-0.289-3.855-0.675-3.952-2.699 0-2.024 1.928-2.795 4.048-2.795 1.446 0 2.795 0.386 3.759 1.349l-0.578 0.675z"></path><path fill="#1e2e35" d="M58.41 7.518c0 1.060-1.639 1.060-1.639 0s1.639-1.060 1.639 0zM57.060 10.795v10.12h0.964v-10.12h-0.964z"></path><path fill="#1e2e35" d="M63.229 7.807v3.084h3.47v0.867h-3.47v6.169c0 1.349 0.289 2.313 1.831 2.313 0.482 0 1.060-0.193 1.542-0.386l0.386 0.771c-0.675 0.289-1.253 0.482-1.928 0.482-2.12 0-2.795-1.253-2.795-3.277v-6.169h-2.12v-0.867h2.12v-2.892l0.964-0.096z"></path><path fill="#1e2e35" d="M68.53 15.904c0-3.181 2.313-5.205 5.108-5.205s5.108 2.024 5.108 5.205c0 3.181-2.313 5.205-5.108 5.205s-5.108-2.024-5.108-5.205zM77.783 15.904c0-2.602-1.831-4.337-4.145-4.337s-4.145 1.735-4.145 4.337 1.831 4.145 4.145 4.145c2.313 0 4.145-1.542 4.145-4.145z"></path><path fill="#1e2e35" d="M82.024 10.795v1.831c0.675-1.349 2.024-1.928 3.373-1.928 0.771 0 1.446 0.193 2.12 0.578l-0.482 0.771c-0.578-0.289-1.157-0.482-1.735-0.482-1.831 0-3.374 1.542-3.374 3.373v5.88h-0.964v-10.024h1.060z"></path><path fill="#009588" d="M96.771 10.892h2.41v10.024h-2.313l-0.096-1.446c-0.578 1.157-2.12 1.735-3.277 1.735-2.988 0-5.205-1.831-5.205-5.398 0-3.47 2.313-5.301 5.205-5.301 1.349 0 2.602 0.675 3.181 1.639l0.096-1.253zM90.699 15.904c0 1.928 1.349 3.084 2.988 3.084 3.952 0 3.952-6.072 0-6.072-1.639-0.096-2.988 1.060-2.988 2.988z"></path><path fill="#009588" d="M108.626 20.916v-5.301c0-1.542-0.867-2.699-2.41-2.699s-2.602 1.253-2.602 2.795v5.108h-2.41v-10.024h2.217l0.193 1.349c1.060-0.964 2.024-1.542 3.277-1.542 2.41 0 4.241 1.735 4.241 4.916v5.301h-2.506z"></path><path fill="#009588" d="M121.253 10.892h2.41v10.024h-2.313l-0.096-1.446c-0.578 1.157-2.12 1.735-3.277 1.735-2.988 0-5.205-1.831-5.205-5.398 0-3.47 2.313-5.301 5.205-5.301 1.349 0 2.602 0.675 3.181 1.639l0.096-1.253zM115.277 15.904c0 1.928 1.349 3.084 2.988 3.084 3.952 0 3.952-6.072 0-6.072-1.639-0.096-2.988 1.060-2.988 2.988z"></path><path fill="#009588" d="M128.289 6.651v14.265h-2.506v-14.265h2.506z"></path><path fill="#009588" d="M140.819 10.892l-6.169 14.265h-2.699l1.831-4.337-4.048-9.928h2.892l1.542 4.337 0.964 2.795 1.060-2.795 1.831-4.434h2.795z"></path><path fill="#009588" d="M145.639 8v2.892h2.795v2.12h-2.795v4.337c0 0.964 0.578 1.446 1.349 1.446 0.386 0 0.867-0.096 1.253-0.289l0.675 2.12c-0.675 0.289-1.349 0.386-2.024 0.386-2.217 0.096-3.663-1.157-3.663-3.663v-4.337h-1.831v-2.12h1.831v-2.602l2.41-0.289z"></path><path fill="#009588" d="M152.964 8c0 1.928-2.988 1.928-2.9288 0 0.096-1.928 2.988-1.928 2.988 0zM150.265 10.795v10.12h2.506v-10.12h-2.506z"></path><path fill="#009588" d="M163.663 19.663c-1.157 1.157-2.41 1.639-3.855 1.639-2.892 0-5.398-1.735-5.398-5.301s2.41-5.301 5.398-5.301c1.446 0 2.506 0.386 3.663 1.446l-1.542 1.639c-0.578-0.578-1.349-0.771-2.024-0.771-1.639 0-2.892 1.253-2.892 2.988 0 1.928 1.349 2.988 2.892 2.988 0.771 0 1.639-0.193 2.217-0.867l1.542 1.542z"></path><path fill="#009588" d="M171.277 13.494c-0.675-0.675-1.542-0.867-2.506-0.867-1.157 0-1.831 0.386-1.831 0.964 0 0.675 0.578 1.060 1.831 1.060 1.928 0.096 4.337 0.578 4.337 3.181 0 1.735-1.446 3.277-4.337 3.277-1.639 0-3.181-0.289-4.626-1.831l1.253-1.735c0.675 0.771 2.313 1.349 3.47 1.446 0.964 0 1.831-0.482 1.831-1.253 0-0.675-0.578-0.964-2.024-1.060-1.928-0.096-4.145-0.867-4.145-3.084 0-2.313 2.41-3.181 4.241-3.181 1.542 0 2.795 0.289 3.952 1.349l-1.446 1.735z"></path></svg>