<svg width="80" height="80" viewBox="0 0 57 47" xmlns="http://www.w3.org/2000/svg" xmlns:xlink="http://www.w3.org/1999/xlink" class="accept-icon"><defs><polygon id="path-1" points="27.981 18.0908 27.981 0.53 0.7739 0.53 0.7739 18.0908 27.981 18.0908"></polygon></defs><g fill="none" fill-rule="evenodd"><g transform="translate(-661 -434)"><g transform="translate(661 433)"><path fill="#13232A" d="M23.9199,31.7802 L23.5049,31.7802 L23.2119,32.0732 L21.5049,33.7802 L19.9199,33.7802 L19.9199,20.7802 L16.9199,20.7802 L16.9199,14.7802 L19.2699,14.7802 L23.0059,23.1862 L23.2699,23.7802 L23.9199,23.7802 L25.9199,23.7802 L25.9199,31.7802 L23.9199,31.7802 Z M11.9199,33.7802 L11.9199,21.7802 L15.9199,21.7802 L16.9199,21.7802 L18.9199,21.7802 L18.9199,33.7802 L11.9199,33.7802 Z M33.9199,21.7802 L25.9199,21.7802 L25.9199,22.7802 L23.9199,22.7802 L19.9199,13.7802 L15.9199,13.7802 L15.9199,20.7802 L10.9199,20.7802 L10.9199,34.7802 L19.9199,34.7802 L21.9199,34.7802 L23.9199,32.7802 L25.9199,32.7802 L25.9199,35.7802 L33.9199,35.7802 L33.9199,34.7802 L26.9199,34.7802 L26.9199,32.7802 L26.9199,22.7802 L33.9199,22.7802 L33.9199,21.7802 Z"></path><g transform="translate(0 .47)"><path fill="#13232A" d="M29.1699,32.3105 C29.1699,32.5855 28.6699,32.5855 28.6699,32.3105 C28.6699,32.1725 28.7819,32.0605 28.9199,32.0605 C29.0579,32.0605 29.1699,32.1725 29.1699,32.3105 M28.1699,32.3105 C28.1699,32.7235 28.5059,33.0605 28.9199,33.0605 C29.3339,33.0605 29.6699,32.7235 29.6699,32.3105 C29.6699,31.8975 29.3339,31.5605 28.9199,31.5605 C28.5059,31.5605 28.1699,31.8975 28.1699,32.3105"></path><path fill="#13232A" d="M21.689,47 C9.73,47 0,37.271 0,25.311 C0,13.352 9.73,3.622 21.689,3.622 C23.572,3.622 25.487,3.885 27.382,4.402 L27.382,5.719 C25.531,5.179 23.617,4.905 21.689,4.905 C10.438,4.905 1.284,14.059 1.284,25.311 C1.284,36.562 10.438,45.716 21.689,45.716 C32.941,45.716 42.095,36.562 42.095,25.311 C42.095,23.98 41.96,22.634 41.692,21.302 L42.998,21.302 C43.25,22.643 43.378,23.99 43.378,25.311 C43.378,37.271 33.648,47 21.689,47"></path><g transform="translate(29)"><mask id="mask-2" fill="#fff"><use xlink:href="#path-1"></use></mask><polygon fill="#009688" mask="url(mask-2)" points="11.1279 18.0908 0.7739 7.7368 1.4819 7.0298 11.1279 16.6768 27.2739 0.5298 27.9819 1.2368"></polygon></g></g></g></g></g></svg>