<svg width="20" height="20" viewBox="0 0 25 17" xmlns="http://www.w3.org/2000/svg" xmlns:xlink="http://www.w3.org/1999/xlink" class="icon"><defs><polygon id="path-1" points="24.858 15.9995 24.858 0.353 0 0.353 0 15.9995 24.858 15.9995"></polygon></defs><g fill-rule="evenodd"><path d="M21.6487,4.704 C21.6487,4.526 21.5887,4.347 21.4707,4.228 C21.3517,4.11 21.1727,4.03 20.9757,4.03 C20.7967,4.03 20.6387,4.09 20.5197,4.208 L13.1317,11.161 C12.9337,11.359 12.6767,11.458 12.4187,11.458 C12.1617,11.458 11.9237,11.359 11.7057,11.161 L4.3577,4.208 L4.3177,4.189 C4.1987,4.11 4.0407,4.05 3.9017,4.05 C3.6047,4.05 3.3277,4.248 3.2487,4.486 C3.1697,4.724 3.2487,5.021 3.4267,5.179 L7.4477,8.962 L3.4657,12.448 C3.3477,12.567 3.2487,12.725 3.2487,12.904 C3.2287,13.082 3.2877,13.261 3.4067,13.379 C3.5257,13.517 3.7237,13.598 3.9217,13.598 C4.0807,13.598 4.2387,13.538 4.3577,13.438 L8.4377,9.853 L10.8347,12.111 C11.2707,12.527 11.8447,12.745 12.4587,12.745 C13.0727,12.745 13.6467,12.508 14.0827,12.111 L16.4797,9.853 L20.5797,13.438 C20.6987,13.538 20.8567,13.598 21.0147,13.598 C21.2127,13.598 21.4117,13.517 21.5297,13.379 C21.6487,13.261 21.6887,13.082 21.6887,12.904 C21.6687,12.725 21.5887,12.548 21.4707,12.448 L17.4297,8.942 L21.4507,5.16 C21.5697,5.06 21.6287,4.882 21.6487,4.704"></path><g id="Group-5" transform="translate(0 .647)"><mask id="mask-2" fill="#fff"><use xlink:href="#path-1"></use></mask><path d="M23.6888,14.4355 C23.6888,14.6535 23.5108,14.8315 23.2928,14.8315 L1.5648,14.8315 C1.3468,14.8315 1.1688,14.6535 1.1688,14.4355 L1.1688,1.9175 C1.1688,1.6995 1.3468,1.5205 1.5648,1.5205 L23.2928,1.5205 C23.5108,1.5205 23.6888,1.6995 23.6888,1.9175 L23.6888,14.4355 Z M23.2928,0.3525 L1.5648,0.3525 C0.6928,0.3525 -0.0002,1.0655 -0.0002,1.9175 L-0.0002,14.4355 C-0.0002,15.3065 0.7128,15.9995 1.5648,15.9995 L23.2928,15.9995 C24.1648,15.9995 24.8578,15.2875 24.8578,14.4355 L24.8578,1.9175 C24.8768,1.0455 24.1648,0.3525 23.2928,0.3525 L23.2928,0.3525 Z" mask="url(mask-2)"></path></g></g></svg>