<svg class="icon" width="20" height="20" viewBox="0 0 19 26" xmlns="http://www.w3.org/2000/svg" xmlns:xlink="http://www.w3.org/1999/xlink"><defs><polygon id="path-1" points="0 25.0469 19.083 25.0469 19.083 -0.0001 0 -0.0001"></polygon></defs><g fill-rule="evenodd"><path d="M9.5415,19.083 C8.2295,19.083 7.1565,18.01 7.1565,16.698 C7.1565,15.386 8.2295,14.312 9.5415,14.312 C10.8535,14.312 11.9265,15.386 11.9265,16.698 C11.9265,18.01 10.8535,19.083 9.5415,19.083 Z"></path><mask id="mask-2" fill="#fff"><use xlink:href="#path-1"></use></mask><path d="M1.509,23.5389 L17.576,23.5389 L17.576,9.8569 L1.509,9.8569 L1.509,23.5389 Z M4.967,5.9639 C4.967,3.4409 7.019,1.3889 9.542,1.3889 C12.063,1.3889 14.116,3.4409 14.116,5.9639 L14.116,8.5049 L4.967,8.5049 L4.967,5.9639 Z M16.698,8.3489 L15.505,8.3489 L15.505,5.9639 C15.505,2.6719 12.834,-0.0001 9.542,-0.0001 C6.25,-0.0001 3.578,2.6719 3.578,5.9639 L3.578,8.3489 L2.385,8.3489 C1.073,8.3489 0,9.4219 0,10.7339 L0,22.6609 C0,23.9739 1.073,25.0469 2.385,25.0469 L16.698,25.0469 C18.01,25.0469 19.083,23.9739 19.083,22.6609 L19.083,10.7339 C19.083,9.4219 18.01,8.3489 16.698,8.3489 L16.698,8.3489 Z" mask="url(mask-2)"></path></g></svg>