<svg version="1.0" xmlns="http://www.w3.org/2000/svg" x="0px" y="0px" viewBox="0 0 20 20" xml:space="preserve" class="icon"><path d="M18,13c-1.8-0.3-3.5-0.7-5.3-1.1c-0.5,0.7-1.7,1.1-2.9,1.1c-1.2,0-2.4-0.4-2.8-1.1c-1.8,0.3-3.6,0.7-5.3,1.1 c0,2.3,0,4.7,0,7H18C18,17.7,18,15.4,18,13z M2.5,19.1c0-1.8,0-3.5,0-5.3c1.4-0.3,2.8-0.6,4.1-0.8c0.7,0.6,1.9,1,3.2,1 c1.3,0,2.5-0.4,3.2-1c0.6,0.1,1.3,0.3,1.9,0.4c0.7,0.1,1.4,0.3,2.2,0.4c0,1.8,0,3.6,0,5.3H2.5z"></path><path d="M9.8,9.7c0.2,0,0.4,0,0.7,0c2-0.2,3.7-1.9,4.1-3.8c0.3-1.6-0.2-3.3-1.3-4.4C12.3,0.5,11,0,9.8,0 C9.6,0,9.5,0,9.3,0C7.5,0.2,5.8,1.5,5.2,3.3C4.6,4.9,5,6.9,6.2,8.1C7.1,9.1,8.4,9.7,9.8,9.7z M6.1,3.6C6.5,2.2,7.9,1.1,9.4,1 c0.1,0,0.2,0,0.4,0c1.1,0,2.1,0.4,2.8,1.2c0.9,0.9,1.3,2.3,1.1,3.6c-0.3,1.6-1.7,2.9-3.4,3.1c-0.2,0-0.3,0-0.5,0 c-1.1,0-2.2-0.5-2.9-1.3C5.9,6.5,5.6,4.9,6.1,3.6z"></path></svg>